<?xml version="1.0" encoding="UTF-8" standalone="no"?>
<!DOCTYPE svg PUBLIC "-//W3C//DTD SVG 1.1//EN" "http://www.w3.org/Graphics/SVG/1.1/DTD/svg11.dtd">
<svg width="100%" height="100%" viewBox="0 0 300 300" version="1.1" xmlns="http://www.w3.org/2000/svg" xmlns:xlink="http://www.w3.org/1999/xlink" xml:space="preserve" xmlns:serif="http://www.serif.com/" style="fill-rule:evenodd;clip-rule:evenodd;stroke-linejoin:round;stroke-miterlimit:2;">
    <g transform="matrix(1,0,0,1,150,150)">
        <g transform="matrix(1,0,0,1,-150,-150)">
            <g transform="matrix(0.959702,0,0,0.938405,150,150)">
                <g transform="matrix(1,0,0,1,-227,-227)">
                    <g transform="matrix(1.946667,0,0,1.946667,227,227)">
                        <g transform="matrix(1,0,0,1,-100,-100)">
                            <g>
                                <g>
                                    <clipPath id="_clip1">
                                        <path d="M-5.505,0L194.495,0L194.495,200L-5.505,200L-5.505,0ZM76.495,83.355C76.495,80.502 77.943,77.854 80.319,76.36C82.695,74.866 85.659,74.74 88.148,76.027C97.426,80.826 110.449,87.562 120.329,92.673C123.031,94.07 124.734,96.903 124.734,100C124.734,103.097 123.031,105.93 120.329,107.327C110.449,112.438 97.426,119.174 88.148,123.973C85.659,125.26 82.695,125.134 80.319,123.64C77.943,122.146 76.495,119.498 76.495,116.645L76.495,83.355Z"/>
                                    </clipPath>
                                    <g clip-path="url(#_clip1)">
                                        <path d="M180,62.353L180,137.647C180,161.022 161.022,180 137.647,180L62.353,180C38.978,180 20,161.022 20,137.647L20,62.353C20,38.978 38.978,20 62.353,20L137.647,20C161.022,20 180,38.978 180,62.353Z" style="fill:rgb(255,0,0);"/>
                                    </g>
                                </g>
                            </g>
                        </g>
                    </g>
                </g>
            </g>
        </g>
    </g>
</svg>
