<?xml version="1.0" encoding="UTF-8" standalone="no"?>
<!DOCTYPE svg PUBLIC "-//W3C//DTD SVG 1.1//EN" "http://www.w3.org/Graphics/SVG/1.1/DTD/svg11.dtd">
<svg width="100%" height="100%" viewBox="0 0 300 300" version="1.1" xmlns="http://www.w3.org/2000/svg" xmlns:xlink="http://www.w3.org/1999/xlink" xml:space="preserve" xmlns:serif="http://www.serif.com/" style="fill-rule:evenodd;clip-rule:evenodd;stroke-linejoin:round;stroke-miterlimit:2;">
    <g transform="matrix(0.22264,0,0,0.22264,150,149)">
        <g transform="matrix(1,0,0,1,-946,-946)">
            <g>
                <g id="Layer_1-2">
                    <path d="M684.542,310.371C603.123,310.371 525.04,342.714 467.468,400.286C441.521,426.233 412.962,454.792 386.125,481.629C318.122,549.632 279.918,641.864 279.918,738.035L279.918,1355.033C279.918,1416.477 304.327,1475.404 347.774,1518.852C391.222,1562.299 450.149,1586.708 511.593,1586.708L1024.076,1586.708C1080.573,1586.708 1134.755,1564.265 1174.704,1524.316C1259.466,1439.554 1411.944,1287.076 1512.506,1186.514C1576.049,1122.971 1611.748,1036.787 1611.748,946.922L1611.748,567.779C1611.748,425.617 1496.502,310.371 1354.34,310.371L684.542,310.371ZM1500.762,969.925C1500.762,1009.53 1485.029,1047.512 1457.025,1075.516C1413.028,1119.513 1346.4,1186.141 1308.298,1224.243C1289.404,1243.137 1263.779,1253.751 1237.059,1253.751L1113.196,1253.751C1077.098,1253.751 1042.478,1268.091 1016.953,1293.616C993.133,1317.436 962.166,1348.403 934.227,1376.342C922.226,1388.343 904.177,1391.934 888.497,1385.439C872.817,1378.944 862.593,1363.643 862.593,1346.671L862.593,1346.667C862.593,1295.351 820.993,1253.751 769.677,1253.751C766.673,1253.751 763.643,1253.751 760.593,1253.751C721.416,1253.751 683.843,1238.188 656.141,1210.485C628.438,1182.783 612.875,1145.21 612.875,1106.033L612.875,621.357C612.875,568.314 633.946,517.443 671.454,479.936C708.961,442.428 759.832,421.357 812.875,421.357L1366.34,421.357C1440.579,421.357 1500.762,481.54 1500.762,555.779L1500.762,969.925Z" style="fill:rgb(145,70,255);fill-rule:nonzero;"/>
                    <path d="M1284.284,615.582C1311.898,615.582 1334.284,637.968 1334.284,665.582L1334.284,898.539C1334.284,926.153 1311.898,948.539 1284.284,948.539L1273.298,948.539C1245.684,948.539 1223.298,926.153 1223.298,898.539L1223.298,665.582C1223.298,637.968 1245.684,615.582 1273.298,615.582L1284.284,615.582Z" style="fill:rgb(145,70,255);"/>
                    <path d="M979.073,615.582C1006.687,615.582 1029.073,637.968 1029.073,665.582L1029.073,898.539C1029.073,926.153 1006.687,948.539 979.073,948.539L968.087,948.539C940.473,948.539 918.087,926.153 918.087,898.539L918.087,665.582C918.087,637.968 940.473,615.582 968.087,615.582L979.073,615.582Z" style="fill:rgb(145,70,255);"/>
                </g>
            </g>
        </g>
    </g>
</svg>
