<?xml version="1.0" encoding="UTF-8" standalone="no"?>
<!DOCTYPE svg PUBLIC "-//W3C//DTD SVG 1.1//EN" "http://www.w3.org/Graphics/SVG/1.1/DTD/svg11.dtd">
<svg width="100%" height="100%" viewBox="0 0 300 300" version="1.1" xmlns="http://www.w3.org/2000/svg" xmlns:xlink="http://www.w3.org/1999/xlink" xml:space="preserve" xmlns:serif="http://www.serif.com/" style="fill-rule:evenodd;clip-rule:evenodd;stroke-linejoin:round;stroke-miterlimit:2;">
    <g transform="matrix(0.22264,0,0,0.22264,150,149)">
        <g transform="matrix(1,0,0,1,-946,-946)">
            <g>
                <g id="Layer_1-2">
                    <path d="M578.094,310.371C564.833,310.371 552.115,315.639 542.738,325.016C494.747,373.007 342.554,525.2 294.563,573.191C285.186,582.568 279.918,595.286 279.918,608.547L279.918,1536.708C279.918,1564.322 302.304,1586.708 329.918,1586.708L1091.601,1586.708C1104.862,1586.708 1117.58,1581.44 1126.957,1572.063C1199.975,1499.045 1524.085,1174.935 1597.103,1101.917C1606.48,1092.54 1611.748,1079.822 1611.748,1066.561L1611.748,360.371C1611.748,332.757 1589.362,310.371 1561.748,310.371C1372.503,310.371 704.461,310.371 578.094,310.371ZM1500.762,1011.068C1500.762,1024.329 1495.494,1037.047 1486.117,1046.424C1445.837,1086.704 1333.715,1198.826 1293.435,1239.106C1284.058,1248.483 1271.34,1253.751 1258.079,1253.751C1215.768,1253.751 1119.84,1253.751 1077.529,1253.751C1064.268,1253.751 1051.55,1259.019 1042.173,1268.396C1014.647,1295.922 954.081,1356.488 910.904,1399.665C902.81,1407.759 890.638,1410.18 880.063,1405.8C869.488,1401.419 862.593,1391.1 862.593,1379.654L862.593,1303.751C862.593,1290.49 857.325,1277.772 847.948,1268.396C838.572,1259.019 825.854,1253.751 812.593,1253.751L662.875,1253.751C635.261,1253.751 612.875,1231.365 612.875,1203.751L612.875,471.357C612.875,443.743 635.261,421.357 662.875,421.357C818.772,421.357 1294.865,421.357 1450.762,421.357C1478.376,421.357 1500.762,443.743 1500.762,471.357C1500.762,597.634 1500.762,925.439 1500.762,1011.068Z" style="fill:rgb(145,70,255);fill-rule:nonzero;"/>
                    <path d="M1284.284,615.582C1311.898,615.582 1334.284,637.968 1334.284,665.582L1334.284,898.539C1334.284,926.153 1311.898,948.539 1284.284,948.539L1273.298,948.539C1245.684,948.539 1223.298,926.153 1223.298,898.539L1223.298,665.582C1223.298,637.968 1245.684,615.582 1273.298,615.582L1284.284,615.582Z" style="fill:rgb(145,70,255);"/>
                    <path d="M979.073,615.582C1006.687,615.582 1029.073,637.968 1029.073,665.582L1029.073,898.539C1029.073,926.153 1006.687,948.539 979.073,948.539L968.087,948.539C940.473,948.539 918.087,926.153 918.087,898.539L918.087,665.582C918.087,637.968 940.473,615.582 968.087,615.582L979.073,615.582Z" style="fill:rgb(145,70,255);"/>
                </g>
            </g>
        </g>
    </g>
</svg>
